<?xml version="1.0" encoding="UTF-8" standalone="no"?>
<svg
   xmlns:dc="http://purl.org/dc/elements/1.1/"
   xmlns:cc="http://creativecommons.org/ns#"
   xmlns:rdf="http://www.w3.org/1999/02/22-rdf-syntax-ns#"
   xmlns:svg="http://www.w3.org/2000/svg"
   xmlns="http://www.w3.org/2000/svg"
   xmlns:sodipodi="http://sodipodi.sourceforge.net/DTD/sodipodi-0.dtd"
   xmlns:inkscape="http://www.inkscape.org/namespaces/inkscape"
   height="354.43213"
   viewBox="-19 -91 553.76054 408.42765"
   width="480.0014"
   version="1.1"
   id="svg22"
   sodipodi:docname="clear-all.svg"
   inkscape:version="0.92.3 (2405546, 2018-03-11)">
  <metadata
     id="metadata28">
    <rdf:RDF>
      <cc:Work
         rdf:about="">
        <dc:format>image/svg+xml</dc:format>
        <dc:type
           rdf:resource="http://purl.org/dc/dcmitype/StillImage" />
        <dc:title></dc:title>
      </cc:Work>
    </rdf:RDF>
  </metadata>
  <defs
     id="defs26" />
  <sodipodi:namedview
     pagecolor="#ffffff"
     bordercolor="#666666"
     borderopacity="1"
     objecttolerance="10"
     gridtolerance="10"
     guidetolerance="10"
     inkscape:pageopacity="0"
     inkscape:pageshadow="2"
     inkscape:window-width="1200"
     inkscape:window-height="1262"
     id="namedview24"
     showgrid="false"
     inkscape:pagecheckerboard="true"
     inkscape:zoom="0.4609375"
     inkscape:cx="239.53171"
     inkscape:cy="173.64508"
     inkscape:window-x="-9"
     inkscape:window-y="121"
     inkscape:window-maximized="0"
     inkscape:current-layer="svg22"
     fit-margin-top="0"
     fit-margin-left="0"
     fit-margin-right="0"
     fit-margin-bottom="0" />
  <path
     d="M 509.3644,-7.2978561 298.56362,-67.165043 c -18.52344,-5.269531 -37.81641,5.453125 -43.11328,23.96875 l -39.6211,134.539061 -7.92578,6.46094 C 189.80971,112.65136 180.95424,135.99511 184.64174,159.1123 l -3.40625,3.16406 -24.27343,19.79297 c -19.9375,16.25391 -22.92188,45.59375 -6.66407,65.53516 l 43.05469,52.80078 c 7.78125,9.60156 19.08203,15.6875 31.38281,16.89844 1.59375,0.16797 3.19532,0.25 4.80079,0.2539 10.69921,0.0117 21.07421,-3.6914 29.34765,-10.47656 l 37.32813,-30.42969 c 19.41406,2.11329 38.86718,-3.63671 54.01172,-15.96484 l 36.4414,-29.71875 50.92188,14.46484 c 18.55859,5.28125 37.8789,-5.49218 43.14062,-24.05468 L 533.42299,35.846678 c 5.26954,-18.55078 -5.5,-37.8671901 -24.05859,-43.1367211 z M 272.22378,-38.344731 c 2.63281,-9.28125 12.29687,-14.667969 21.57421,-12.027343 l 15.28125,4.339843 -24.49218,81.316409 -44.79688,36.52343 z m 66.97265,285.480471 c -12.0625,9.83203 -27.70312,14.14453 -43.09765,11.89062 -2.74219,-0.78125 -5.69922,-0.17968 -7.91016,1.625 l -40.33984,32.88282 c -12.46094,10.16406 -30.80469,8.29687 -40.96875,-4.16407 l -43.04688,-52.80078 c -10.16406,-12.46875 -8.29687,-30.80859 4.16406,-40.96875 l 24.49219,-19.96875 c 0.14453,-0.12109 0.29297,-0.25 0.42969,-0.375 l 7.19531,-6.6875 c 2.32031,-2.16015 3.28906,-5.40625 2.52735,-8.48437 -4.38282,-18.03125 1.94921,-36.98047 16.29687,-48.75 L 322.16909,27.163078 c 10.19531,13.09766 8.0625,31.94532 -4.80469,42.4336 l -34.86719,28.42968 c -3.73828,3.046882 -4.29297,8.546882 -1.24609,12.285162 3.04687,3.73438 8.54297,4.29688 12.28125,1.24609 l 29.36328,-23.937502 0.008,-0.008 72.60547,-59.19531 c 4.35938,-3.49219 10.72657,-2.82031 14.26563,1.51172 3.53125,4.33203 2.92187,10.69922 -1.3711,14.28125 l -0.0117,0.0117 -0.0156,0.0117 -87.25391,71.144532 c -3.73828,3.04297 -4.29687,8.54297 -1.25,12.28125 3.04688,3.73437 8.54688,4.29687 12.28516,1.25 l 87.26172,-71.152352 22.0039,-17.9375 c 2.8086,-2.38672 6.69141,-3.07422 10.15235,-1.78906 3.45703,1.28516 5.95312,4.33984 6.51953,7.99219 0.57031,3.64453 -0.87891,7.3125 -3.78125,9.58594 l -14.64453,11.94531 -0.0195,0.0117 -22.00391,17.94531 -0.008,0.008 -72.58985,59.187502 c -2.4414,1.96094 -3.64453,5.08594 -3.15234,8.17969 0.49609,3.09375 2.60938,5.68359 5.53906,6.78906 2.9336,1.10938 6.23047,0.5586 8.64063,-1.4375 l 72.60156,-59.191402 17.71094,-14.44141 4.28515,-3.49219 c 4.36719,-3.50781 10.74219,-2.83594 14.28516,1.50781 3.53516,4.33985 2.91406,10.72657 -1.40234,14.29688 L 437.884,117.84271 c -0.4414,0.36328 -0.85547,0.77344 -1.22265,1.22266 -0.84375,0.54297 -1.66016,1.13281 -2.44141,1.76953 l -50.60156,41.2539 c -2.44532,1.96094 -3.64844,5.08594 -3.15625,8.1836 0.49218,3.09375 2.60937,5.6914 5.54297,6.79687 2.93359,1.10547 6.23437,0.55078 8.64843,-1.44922 l 50.59759,-41.25384 c 2.82031,-2.33594 6.67969,-2.98438 10.10547,-1.69531 3.42969,1.29296 5.89844,4.32031 6.47265,7.9414 0.57422,3.61719 -0.83203,7.26563 -3.6914,9.55469 z M 516.62221,31.073238 463.93471,216.60058 c -2.64843,9.26953 -12.29687,14.64844 -21.57812,12.02735 l -39.17969,-11.13282 66,-53.80859 c 7.11328,-5.78516 10.89844,-14.71875 10.09375,-23.84766 -0.80469,-9.1289 -6.08984,-17.26953 -14.10156,-21.71875 l 9.42578,-7.6875 c 7.22266,-5.88281 10.99609,-15.007812 10.03516,-24.269532 -0.95313,-9.26562 -6.51953,-17.41797 -14.79688,-21.69922 8.50781,-11.14062 7.32813,-26.88281 -2.74219,-36.6289 -10.07031,-9.75 -25.84375,-10.41797 -36.69921,-1.55469 l -2.08204,1.69531 C 425.548,19.237298 418.64175,12.432613 409.8605,9.8115189 401.08315,7.1904259 391.57143,9.0888629 384.46987,14.881828 l -38.39844,31.30078 c 0.0899,-11.14843 -3.73047,-21.97656 -10.79687,-30.60156 -5.85547,-7.1796851 -16.41797,-8.2539041 -23.59375,-2.402341 l -2.92969,2.386721 17.12109,-56.839846 178.72266,50.7617179 c 9.28125,2.6289071 14.66797,12.2968781 12.02734,21.5781281 z m 0,0"
     id="path2"
     style="fill:#000000;fill-opacity:1"
     inkscape:connector-curvature="0" />
  <path
     d="m 232.14174,-66.551762 c 4.4336,0 8.16016,-3.324219 8.66797,-7.726562 0.51172,-4.410157 -2.36328,-8.492188 -6.68359,-9.507813 -5.53516,-1.292969 -11.24609,-2.445313 -16.96094,-3.414063 -0.125,-0.01953 -0.25781,-0.03906 -0.39062,-0.05469 l -24.85938,-3.058594 c -0.12109,-0.01563 -0.25,-0.02344 -0.375,-0.03906 -11.64844,-0.90625 -23.34375,-1.1875 -35.02344,-0.84375 -4.82031,0.136719 -8.62109,4.15625 -8.47656,8.980469 0.13672,4.824218 4.15235,8.617187 8.97656,8.480468 10.99219,-0.324218 21.9961,-0.0625 32.95704,0.78125 l 24.47656,3.015625 c 5.29297,0.894531 10.57422,1.960938 15.69531,3.160157 0.65234,0.152343 1.32422,0.230468 1.99609,0.226562 z m 0,0"
     id="path4"
     style="fill:#000000;fill-opacity:1"
     inkscape:connector-curvature="0" />
  <path
     d="m 107.51284,-68.786137 c 7.75781,-1.308594 15.5664,-2.378906 23.20312,-3.183594 4.79297,-0.507812 8.26953,-4.804687 7.76563,-9.597656 -0.50781,-4.792969 -4.80469,-8.273437 -9.59766,-7.769531 -8,0.839844 -16.17187,1.964844 -24.28125,3.335937 -4.757811,0.804688 -7.960931,5.308594 -7.160151,10.066407 0.80468,4.753906 5.312501,7.953124 10.066401,7.148437 z m 0,0"
     id="path6"
     style="fill:#000000;fill-opacity:1"
     inkscape:connector-curvature="0" />
  <path
     d="m 62.665181,-76.641606 c -13.160156,3.539063 -26.078124,7.914063 -38.683593,13.105469 -4.417969,1.929687 -6.441407,7.074219 -4.511719,11.492187 1.929688,4.417969 7.074219,6.441407 11.496094,4.511719 11.859375,-4.851562 24.003906,-8.957031 36.378906,-12.28125 4.644531,-1.296875 7.363281,-6.109375 6.070312,-10.753906 -1.289062,-4.648437 -6.101562,-7.367187 -10.75,-6.074219 z m 0,0"
     id="path8"
     style="fill:#000000;fill-opacity:1"
     inkscape:connector-curvature="0" />
  <path
     d="m 214.57534,14.331048 c 3.08203,0.71485 6.3125,-0.29297 8.4375,-2.636716 2.1289,-2.3437501 2.82031,-5.6562501 1.8125,-8.6562501 -1.01172,-2.99609403 -3.56641,-5.21875 -6.67578,-5.800782 -4.81641,-1 -9.76172,-1.898437 -14.69922,-2.660156 -5.47656,-0.839844 -11.11328,-1.542968 -16.73828,-2.078125 -4.80078,-0.457031 -9.0625,3.0625 -9.51953,7.86328097 -0.45704,4.79687603 3.0625,9.06250003 7.86328,9.51953203 5.29297,0.5078121 10.60156,1.1640621 15.73828,1.9531251 4.6289,0.710937 9.26953,1.554691 13.78125,2.496091 z m 0,0"
     id="path10"
     style="fill:#000000;fill-opacity:1"
     inkscape:connector-curvature="0" />
  <path
     d="m 106.50503,12.202144 c 0.42187,0 0.83593,-0.03516 1.25,-0.09375 12.30859,-1.757812 24.70312,-2.8789061 37.13281,-3.3437501 4.8164,-0.08594 8.65625,-4.0625 8.57422,-8.88671803 -0.0898,-4.82031297 -4.0625,-8.66015697 -8.88672,-8.57421897 -0.10938,0 -0.21485,0 -0.32031,0 -13.04297,0.488281 -26.05079,1.65625 -38.97266,3.503906 -4.54297,0.636719 -7.820311,4.68359397 -7.496091,9.261719 0.32031,4.574218 4.125001,8.1210941 8.714841,8.1171871 z m 0,0"
     id="path12"
     style="fill:#000000;fill-opacity:1"
     inkscape:connector-curvature="0" />
  <path
     d="m 17.837057,35.624018 c 1.199218,0 2.386718,-0.25 3.484374,-0.72656 0.183594,-0.082 18.753907,-8.09766 47.496094,-15.20313 4.636719,-1.1914 7.453125,-5.90234 6.304688,-10.5546841 -1.152344,-4.644531 -5.835938,-7.5 -10.5,-6.394531 C 34.329244,10.2373 15.14565,18.541988 14.340963,18.893548 c -3.789063,1.65235 -5.9023435,5.73828 -5.0546875,9.78907 0.8437495,4.04687 4.4140625,6.94531 8.5507815,6.9414 z m 0,0"
     id="path14"
     style="fill:#000000;fill-opacity:1"
     inkscape:connector-curvature="0" />
  <path
     d="m 154.94253,100.66699 c 11.46875,1 22.85937,2.73437 34.10546,5.19141 4.6836,0.97656 9.28125,-2 10.3125,-6.671882 1.03125,-4.67187 -1.89843,-9.30469 -6.55859,-10.38281 -11.98047,-2.6211 -24.11328,-4.46485 -36.33203,-5.52735 -3.125,-0.3125 -6.17969,1.08204 -7.99609,3.64454 -1.8125,2.5664 -2.10938,5.91406 -0.76954,8.75781 1.33985,2.84765 4.10157,4.750002 7.23829,4.988282 z m 0,0"
     id="path16"
     style="fill:#000000;fill-opacity:1"
     inkscape:connector-curvature="0" />
  <path
     d="m 105.95034,82.807608 c -9.835941,0.64063 -19.921881,1.69922 -29.972659,3.16407 -4.53125,0.65625 -7.789062,4.69922 -7.457031,9.26562 0.324219,4.57031 4.125,8.105472 8.707031,8.105472 0.421876,0 0.847657,-0.0352 1.265626,-0.0937 9.601562,-1.39844 19.214842,-2.41016 28.593753,-3.01953 4.80859,-0.312502 8.45703,-4.460942 8.14453,-9.277342 -0.3125,-4.8125 -4.46875,-8.46094 -9.27734,-8.14454 z m 0,0"
     id="path18"
     style="fill:#000000;fill-opacity:1"
     inkscape:connector-curvature="0" />
  <path
     d="M 19.137838,98.416988 C 7.9620575,101.60449 -3.0184115,105.4248 -13.7606,109.8623 c -4.417969,1.92969 -6.4375,7.07422 -4.507812,11.4961 1.925781,4.41796 7.074219,6.4375 11.4921875,4.50781 10.078125,-4.13281 20.3710935,-7.70703 30.8437495,-10.69922 3.015625,-0.85547 5.339844,-3.26953 6.085938,-6.32031 0.746094,-3.04297 -0.199219,-6.25391 -2.472656,-8.41016 -2.277344,-2.160162 -5.535157,-2.929692 -8.535157,-2.019532 z m 0,0"
     id="path20"
     style="fill:#000000;fill-opacity:1"
     inkscape:connector-curvature="0" />
</svg>
