<?xml version="1.0" encoding="UTF-8" standalone="no"?>
<!-- Generator: Adobe Illustrator 19.0.0, SVG Export Plug-In . SVG Version: 6.00 Build 0)  -->

<svg
   xmlns:dc="http://purl.org/dc/elements/1.1/"
   xmlns:cc="http://creativecommons.org/ns#"
   xmlns:rdf="http://www.w3.org/1999/02/22-rdf-syntax-ns#"
   xmlns:svg="http://www.w3.org/2000/svg"
   xmlns="http://www.w3.org/2000/svg"
   xmlns:sodipodi="http://sodipodi.sourceforge.net/DTD/sodipodi-0.dtd"
   xmlns:inkscape="http://www.inkscape.org/namespaces/inkscape"
   version="1.1"
   id="Capa_1"
   x="0px"
   y="0px"
   viewBox="0 0 52.974 52.974"
   style="enable-background:new 0 0 52.974 52.974;"
   xml:space="preserve"
   width="512px"
   height="512px"
   sodipodi:docname="unlink.svg"
   inkscape:version="0.92.3 (2405546, 2018-03-11)"><metadata
   id="metadata43"><rdf:RDF><cc:Work
       rdf:about=""><dc:format>image/svg+xml</dc:format><dc:type
         rdf:resource="http://purl.org/dc/dcmitype/StillImage" /><dc:title></dc:title></cc:Work></rdf:RDF></metadata><defs
   id="defs41" /><sodipodi:namedview
   pagecolor="#ffffff"
   bordercolor="#666666"
   borderopacity="1"
   objecttolerance="10"
   gridtolerance="10"
   guidetolerance="10"
   inkscape:pageopacity="0"
   inkscape:pageshadow="2"
   inkscape:window-width="725"
   inkscape:window-height="480"
   id="namedview39"
   showgrid="false"
   inkscape:pagecheckerboard="true"
   inkscape:zoom="0.4609375"
   inkscape:cx="256"
   inkscape:cy="256"
   inkscape:window-x="0"
   inkscape:window-y="0"
   inkscape:window-maximized="0"
   inkscape:current-layer="Capa_1" />
<g
   id="g6">
	<path
   d="M49.467,3.51c-4.677-4.679-12.291-4.681-16.97,0l-9.192,9.192c-0.391,0.391-0.391,1.023,0,1.414s1.023,0.391,1.414,0   l9.192-9.192c1.88-1.88,4.391-2.915,7.07-2.915c2.681,0,5.191,1.036,7.071,2.916s2.916,4.391,2.916,7.071   c0,2.68-1.036,5.19-2.916,7.07L36.033,31.088c-3.898,3.898-10.244,3.898-14.143,0c-0.391-0.391-1.023-0.391-1.414,0   s-0.391,1.023,0,1.414c2.34,2.339,5.412,3.509,8.485,3.509s6.146-1.17,8.485-3.509L49.467,20.48   c2.258-2.258,3.502-5.271,3.502-8.485C52.969,8.781,51.725,5.768,49.467,3.51z"
   fill="#FFFFFF"
   id="path2" />
	<path
   d="M26.84,40.279l-7.778,7.778c-1.88,1.88-4.391,2.916-7.071,2.916c-2.68,0-5.19-1.036-7.071-2.916   c-3.898-3.898-3.898-10.243,0-14.142l11.314-11.314c3.899-3.898,10.244-3.896,14.142,0c0.391,0.391,1.023,0.391,1.414,0   s0.391-1.023,0-1.414c-4.677-4.679-12.291-4.681-16.97,0L3.505,32.502c-2.258,2.258-3.501,5.271-3.501,8.485   c0,3.214,1.244,6.227,3.502,8.484s5.271,3.502,8.484,3.502c3.215,0,6.228-1.244,8.485-3.502l7.778-7.778   c0.391-0.391,0.391-1.023,0-1.414S27.231,39.889,26.84,40.279z"
   fill="#FFFFFF"
   id="path4" />
</g>
<g
   id="g8">
</g>
<g
   id="g10">
</g>
<g
   id="g12">
</g>
<g
   id="g14">
</g>
<g
   id="g16">
</g>
<g
   id="g18">
</g>
<g
   id="g20">
</g>
<g
   id="g22">
</g>
<g
   id="g24">
</g>
<g
   id="g26">
</g>
<g
   id="g28">
</g>
<g
   id="g30">
</g>
<g
   id="g32">
</g>
<g
   id="g34">
</g>
<g
   id="g36">
</g>
</svg>