<?xml version="1.0" standalone="no"?>
<!DOCTYPE svg PUBLIC "-//W3C//DTD SVG 20010904//EN"
 "http://www.w3.org/TR/2001/REC-SVG-20010904/DTD/svg10.dtd">
<svg version="1.0" xmlns="http://www.w3.org/2000/svg"
 width="273.000000pt" height="276.000000pt" viewBox="0 0 273.000000 276.000000"
 preserveAspectRatio="xMidYMid meet">
<metadata>
Created by potrace 1.15, written by Peter Selinger 2001-2017
</metadata>
<g transform="translate(0.000000,276.000000) scale(0.100000,-0.100000)"
fill="#000000" stroke="none">
<path d="M626 2660 c-49 -54 -95 -109 -102 -122 -18 -31 -17 -77 1 -111 25
-49 145 -176 160 -170 11 4 15 34 18 126 1 68 3 25 4 -98 l2 -220 -32 40 c-18
22 -65 73 -105 114 -41 42 -84 99 -100 130 -24 50 -27 67 -27 158 0 94 -2 104
-25 127 -34 37 -78 46 -224 46 l-128 0 3 -149 c4 -133 6 -153 25 -178 40 -54
76 -66 186 -65 55 1 103 3 106 6 3 3 -32 46 -76 95 -65 71 -79 91 -68 100 12
10 123 -105 420 -436 l38 -43 -228 2 c-196 2 -210 3 -101 8 l127 5 -72 77
c-96 102 -160 128 -227 93 -32 -16 -201 -193 -201 -210 0 -15 146 -157 194
-189 70 -47 116 -30 223 84 58 60 59 60 133 70 91 13 202 0 239 -28 14 -10 34
-30 45 -45 19 -26 19 -27 1 -47 -16 -18 -30 -20 -131 -20 -189 0 -197 -10
-202 -233 l-4 -159 149 4 c207 4 220 14 229 178 5 85 23 190 32 190 6 0 236
-239 350 -362 l62 -67 0 -161 0 -160 -125 0 c-69 0 -125 3 -125 6 0 3 30 39
68 80 140 155 137 189 -32 369 l-76 80 -90 -92 c-96 -98 -120 -138 -120 -201
0 -43 18 -71 100 -158 37 -39 58 -54 71 -51 15 4 19 0 19 -19 l0 -24 -125 0
c-90 0 -134 4 -153 14 -44 24 -472 465 -472 487 0 8 43 -29 95 -81 l95 -95 0
117 c0 86 -4 129 -17 159 -24 60 -52 69 -224 69 l-141 0 3 -153 c5 -216 14
-226 194 -236 109 -6 112 -7 152 -41 22 -19 84 -81 138 -137 l97 -103 -206 0
c-131 0 -206 4 -206 10 0 6 47 10 120 10 66 0 120 3 120 6 0 17 -149 169 -178
181 -59 24 -88 10 -199 -100 -57 -55 -103 -106 -103 -112 0 -17 155 -180 194
-204 41 -26 92 -27 129 -2 16 10 56 48 90 85 l62 66 173 0 174 0 -45 -51 -45
-51 -110 1 c-121 2 -153 -7 -190 -54 -25 -31 -37 -150 -27 -260 l8 -77 143 4
c126 3 146 5 171 24 36 27 51 79 52 184 1 87 21 151 59 193 37 42 138 76 181
62 20 -6 21 -12 19 -148 l-2 -142 -3 133 c-2 72 -7 132 -12 132 -12 0 -149
-154 -166 -187 -18 -34 -19 -80 -2 -109 7 -12 57 -68 111 -125 l99 -102 64 69
c114 124 143 166 143 211 0 38 -38 108 -70 128 -15 10 -100 125 -100 136 0 5
50 9 110 9 l110 0 0 -440 0 -440 -405 0 c-346 0 -411 -2 -443 -16 l-37 -15 24
-20 c23 -18 48 -19 897 -19 802 0 877 1 900 17 l26 17 -34 17 c-30 17 -68 18
-420 19 l-388 0 0 281 0 281 70 -4 70 -4 73 -75 c129 -134 160 -132 317 25
l104 105 -96 96 c-102 100 -126 115 -187 115 -44 0 -89 -30 -165 -108 -70 -73
-63 -81 76 -85 92 -2 81 -3 -56 -5 l-168 -2 38 42 c21 24 104 112 184 196
l147 153 17 -26 c9 -14 51 -60 94 -103 42 -43 90 -102 107 -132 28 -51 30 -63
31 -164 1 -110 1 -110 33 -138 l31 -28 155 0 155 0 0 140 c0 223 -15 240 -212
240 l-113 0 -114 123 -113 122 117 3 c170 4 208 -9 302 -104 70 -70 77 -74
118 -74 41 0 51 6 122 69 43 38 96 87 117 109 l39 41 -42 50 c-53 63 -150 147
-185 161 -67 25 -91 15 -182 -72 -56 -54 -81 -85 -75 -91 6 -6 58 -12 116 -15
180 -8 115 -22 -102 -22 l-206 0 78 82 c177 188 211 208 348 208 148 0 157 13
157 235 l0 157 -143 -4 c-161 -3 -187 -13 -213 -73 -15 -36 -21 -265 -7 -265
4 0 47 39 95 87 49 48 88 83 88 76 0 -6 -104 -119 -231 -252 -244 -253 -256
-262 -322 -243 l-29 8 77 72 c42 41 80 84 85 98 5 13 9 56 8 96 -2 90 17 130
96 207 65 62 85 109 67 163 -13 38 -185 238 -205 238 -7 0 -58 -50 -114 -111
-100 -108 -102 -112 -102 -159 0 -33 7 -56 22 -76 30 -41 151 -164 160 -164 5
0 8 59 8 132 0 95 3 129 11 121 7 -7 10 -75 7 -210 -3 -178 -5 -202 -23 -230
-24 -38 -503 -541 -527 -554 -17 -9 -18 0 -18 129 0 127 2 142 25 188 37 74
83 97 205 102 108 4 142 14 170 50 18 22 20 41 20 184 l0 160 -140 -4 c-121
-3 -143 -6 -167 -24 -51 -37 -63 -76 -63 -206 0 -108 -2 -119 -24 -144 l-23
-28 -5 130 c-6 148 5 292 27 333 8 16 62 73 119 126 57 54 127 125 155 159 31
38 70 74 103 92 52 29 55 29 208 29 188 -1 217 -11 313 -109 97 -99 126 -92
282 64 l99 100 -59 61 c-33 34 -86 83 -118 110 -93 78 -138 68 -265 -63 -76
-78 -69 -87 71 -91 62 -1 -20 -4 -180 -5 -161 -1 -293 1 -293 4 0 3 14 23 32
45 54 68 83 80 209 86 98 5 115 9 139 30 37 30 53 106 48 219 -3 76 -6 86 -31
111 -26 27 -33 28 -137 31 l-109 4 -48 -45 -48 -46 -5 -129 -5 -129 -117 -123
-118 -122 0 52 c0 88 18 129 88 197 34 34 70 79 78 99 28 66 15 93 -104 216
l-108 110 -96 -105 c-149 -162 -149 -191 -4 -344 77 -83 85 -77 89 70 2 77 3
41 5 -95 1 -122 -2 -218 -7 -218 -5 0 -17 12 -27 28 -9 15 -55 66 -101 114
-112 117 -137 170 -138 298 -1 52 -5 103 -9 113 -18 39 -64 51 -212 55 l-141
4 -7 -72 c-4 -39 -4 -113 0 -163 7 -86 9 -94 39 -124 l33 -33 124 0 123 0 147
-147 146 -148 -84 -90 -84 -90 -35 40 -34 40 -1 108 c0 118 -14 167 -50 187
-27 14 -242 26 -295 16 l-38 -7 5 -147 c5 -160 11 -182 61 -212 26 -16 51 -20
132 -20 110 0 147 -14 181 -66 17 -25 17 -27 -3 -43 -34 -27 -47 -62 -53 -146
l-5 -80 -230 238 c-126 130 -249 260 -272 287 -42 49 -43 53 -43 122 0 101 15
142 69 190 88 76 117 144 92 210 -12 31 -189 228 -204 228 -7 -1 -52 -45 -101
-100z"/>
</g>
</svg>
